{"title":"The.Scent.2012.720p.HDRip.XviDDRip","uid":7366670,"size":4339906318,"categoryP":"video","categoryS":"hd___movies","magnet":"?xt=urn:btih:fea4b6c161d29ffd6afb36bca76ff1a41df58dee&amp;dn=The.Scent.2012.720p.HDRip.XviDDRip&amp;tr=udp%3A%2F%2Ftracker.openbittorrent.com%3A80&amp;tr=udp%3A%2F%2Fopen.demonii.com%3A1337&amp;tr=udp%3A%2F%2Ftracker.coppersurfer.tk%3A6969&amp;tr=udp%3A%2F%2Fexodus.desync.com%3A6969","seeders":0,"leechers":1,"uploader":"xxbel","files":-1,"time":1340124484,"description":"The.Scent.2012.720p.HDRip.XviD.avi.bt.td\n   General\n      Format : AVI\n      Format/Info : Audio Video Interleave\n      File size : 4.04 GiB\n      Duration : 1h 58mn\n      Overall bit rate : 4 900 Kbps\n   Video #0\n      ID : 0\n      Format : MPEG-4 Visual\n      Format profile : Advanced Simple@L5\n      Format settings, BVOP : No\n      Format settings, QPel : No\n      Format settings, GMC : No warppoints\n      Format settings, Matrix : Default (MPEG)\n      Codec ID : XVID\n      Codec ID/Hint : XviD\n      Duration : 1h 58mn\n      Source duration : 33mn 36s\n      Bit rate : 1 144 Kbps\n      Width : 1 280 pixels\n      Height : 688 pixels\n      Display aspect ratio : 1.860\n      Frame rate : 29.970 fps\n      Color space : YUV\n      Chroma subsampling : 4:2:0\n      Bit depth : 8 bits\n      Scan type : Progressive\n      Compression mode : Lossy\n      Bits/(Pixel*Frame) : 0.043\n      Stream size : 967 MiB (23%)\n      Writing library : XviD 1.2.1 (UTC 2008-12-04)\n   Audio #1\n      ID : 1\n      Format : AC-3\n      Format/Info : Audio Coding 3\n      Mode extension : CM (complete main)\n      Codec ID : 2000\n      Duration : 1h 58mn\n      Source duration : 32mn 44s\n      Bit rate mode : Constant\n      Bit rate : 320 Kbps\n      Channel(s) : 2 channels\n      Channel positions : Front: L R\n      Sampling rate : 44.1 KHz\n      Bit depth : 16 bits\n      Compression mode : Lossy\n      Stream size : 74.9 MiB (2%)\n      Alignment : Aligned on interleaves\n      Interleave, duration : 36 ms (1.07 video frame)","torrent":{"xt":"urn:btih:fea4b6c161d29ffd6afb36bca76ff1a41df58dee","amp;dn":"The.Scent.2012.720p.HDRip.XviDDRip","amp;tr":["udp%3A%2F%2Ftracker.openbittorrent.com%3A80","udp%3A%2F%2Fopen.demonii.com%3A1337","udp%3A%2F%2Ftracker.coppersurfer.tk%3A6969","udp%3A%2F%2Fexodus.desync.com%3A6969"],"infoHash":"fea4b6c161d29ffd6afb36bca76ff1a41df58dee","infoHashBuffer":{"type":"Buffer","data":[254,164,182,193,97,210,159,253,106,251,54,188,167,111,241,164,29,245,141,238]},"announce":[],"urlList":[]}}